<svg xmlns="http://www.w3.org/2000/svg" width="28" height="28" fill="none" viewBox="0 0 28 28"><path fill="currentColor" d="M.897 27.103Q0 26.206 0 24.908t.897-2.194 2.195-.897q1.297 0 2.194.897t.897 2.194-.897 2.195T3.092 28t-2.195-.897m10.908 0q-.897-.897-.897-2.195t.897-2.194T14 21.817t2.195.897.897 2.194-.897 2.195T14 28t-2.195-.897m10.909 0q-.897-.897-.897-2.195t.897-2.194 2.194-.897 2.195.897.897 2.194-.897 2.195-2.195.897q-1.297 0-2.194-.897M.897 16.195Q0 15.298 0 14t.897-2.195 2.195-.897q1.297 0 2.194.897T6.183 14t-.897 2.195-2.194.897-2.195-.897m10.908 0q-.897-.897-.897-2.195t.897-2.195T14 10.908t2.195.897.897 2.195-.897 2.195-2.195.897-2.195-.897m10.909 0q-.897-.897-.897-2.195t.897-2.195 2.194-.897 2.195.897T28 14t-.897 2.195-2.195.897q-1.297 0-2.194-.897M.897 5.286Q0 4.39 0 3.092T.897.897 3.092 0t2.194.897.897 2.195q0 1.297-.897 2.194t-2.194.897q-1.299 0-2.195-.897m10.908 0q-.897-.897-.897-2.194 0-1.299.897-2.195Q12.702 0 14 0t2.195.897.897 2.195q0 1.297-.897 2.194T14 6.183t-2.195-.897m10.909 0q-.897-.897-.897-2.194 0-1.299.897-2.195Q23.61 0 24.908 0t2.195.897T28 3.092q0 1.297-.897 2.194t-2.195.897q-1.297 0-2.194-.897"/></svg>