<svg width="28" height="28" viewBox="0 0 28 28" fill="none" xmlns="http://www.w3.org/2000/svg">
<path d="M7 21H21V18.6665H7V21ZM13.93 16.66L19.4834 11.13L17.85 9.49655L15.12 12.18V2.6H12.7866V12.18L10.0566 9.49655L8.42345 11.13L13.93 16.66ZM14 28C12.079 28 10.2668 27.6325 8.56345 26.8975C6.86012 26.1625 5.37448 25.1611 4.10655 23.8934C2.83885 22.6255 1.8375 21.1399 1.1025 19.4365C0.3675 17.7332 0 15.921 0 14C0 12.0633 0.3675 10.2433 1.1025 8.54C1.8375 6.83667 2.83885 5.355 4.10655 4.095C5.37448 2.835 6.86012 1.8375 8.56345 1.1025C10.2668 0.3675 12.079 0 14 0C15.9367 0 17.7567 0.3675 19.46 1.1025C21.1633 1.8375 22.645 2.835 23.905 4.095C25.165 5.355 26.1625 6.83667 26.8975 8.54C27.6325 10.2433 28 12.0633 28 14C28 15.921 27.6325 17.7332 26.8975 19.4365C26.1625 21.1399 25.165 22.6255 23.905 23.8934C22.645 25.1611 21.1633 26.1625 19.46 26.8975C17.7567 27.6325 15.9367 28 14 28ZM14 25.6666C17.251 25.6666 20.0082 24.531 22.2716 22.26C24.5349 19.989 25.6666 17.2356 25.6666 14C25.6666 10.749 24.5349 7.99178 22.2716 5.72845C20.0082 3.46512 17.251 2.33345 14 2.33345C10.7644 2.33345 8.01103 3.46512 5.74 5.72845C3.46897 7.99178 2.33345 10.749 2.33345 14C2.33345 17.2356 3.46897 19.989 5.74 22.26C8.01103 24.531 10.7644 25.6666 14 25.6666Z" fill="currentColor"/>
</svg>
