<svg width="28" height="28" viewBox="0 0 28 28" fill="none" xmlns="http://www.w3.org/2000/svg">
<path d="M12.9035 21H15.2366V12.6H12.9035V21ZM14.881 9.59105C15.118 9.35865 15.2366 9.07048 15.2366 8.72655C15.2366 8.36955 15.1181 8.0703 14.8813 7.8288C14.6442 7.5873 14.3506 7.46655 14.0004 7.46655C13.6501 7.46655 13.3564 7.5873 13.1191 7.8288C12.882 8.0703 12.7635 8.36955 12.7635 8.72655C12.7635 9.07048 12.8819 9.35865 13.1187 9.59105C13.3558 9.82368 13.6494 9.94 13.9997 9.94C14.3499 9.94 14.6437 9.82368 14.881 9.59105ZM14.0063 28C12.0736 28 10.2575 27.6325 8.55785 26.8975C6.85825 26.1625 5.37448 25.1611 4.10655 23.8934C2.83885 22.6255 1.8375 21.1412 1.1025 19.4404C0.3675 17.7396 0 15.9223 0 13.9885C0 12.0546 0.3675 10.2372 1.1025 8.53615C1.8375 6.83538 2.83885 5.355 4.10655 4.095C5.37448 2.835 6.85883 1.8375 8.5596 1.1025C10.2604 0.3675 12.0777 0 14.0115 0C15.9454 0 17.7629 0.3675 19.4639 1.1025C21.1646 1.8375 22.645 2.835 23.905 4.095C25.165 5.355 26.1625 6.83667 26.8975 8.54C27.6325 10.2433 28 12.0612 28 13.9937C28 15.9264 27.6325 17.7426 26.8975 19.4422C26.1625 21.1418 25.165 22.624 23.905 23.8889C22.645 25.1538 21.1633 26.1553 19.46 26.8933C17.7567 27.6311 15.9388 28 14.0063 28ZM14.0115 25.6666C17.2549 25.6666 20.0082 24.531 22.2716 22.26C24.5349 19.989 25.6666 17.2318 25.6666 13.9885C25.6666 10.7451 24.5364 7.99178 22.2761 5.72845C20.0156 3.46512 17.2569 2.33345 14 2.33345C10.7644 2.33345 8.01103 3.4636 5.74 5.7239C3.46897 7.98443 2.33345 10.7431 2.33345 14C2.33345 17.2356 3.46897 19.989 5.74 22.26C8.01103 24.531 10.7682 25.6666 14.0115 25.6666Z" fill="currentColor"/>
</svg>
